<svg width="96" height="96" viewBox="0 0 96 96" fill="none" xmlns="http://www.w3.org/2000/svg">
<mask id="path-1-inside-1_41_32" fill="white">
<path d="M95.1024 36.4412C94.5577 36.1268 87.4647 32.636 85.0702 28.1537C82.6757 23.6715 85.0844 12.8691 85.0702 12.015C85.056 11.1609 84.5446 10.3937 83.7617 10.0522C82.9787 9.71063 62.5113 0.243102 62.1706 0.238085C61.83 0.233068 61.6363 0.195829 61.2983 0.238085C60.9602 0.280341 60.4968 0.492504 59.9897 0.674267C59.4827 0.85603 53.5933 8.54532 47.9947 8.52555C42.3962 8.50577 36.5066 0.638395 35.9997 0.456176C35.4928 0.273957 35.0292 0.0622499 34.6912 0.0199941C34.3531 -0.0222617 34.1594 0.0149037 33.8188 0.0199941C33.4782 0.0250845 13.0107 9.71063 12.2278 10.0522C11.4448 10.3937 10.9334 11.1609 10.9192 12.015C10.9051 12.8691 13.3137 23.6715 10.9192 28.1537C8.52477 32.636 1.50614 36.0917 0.88704 36.4412C0.267935 36.7907 -0.0771729 37.4809 0.0146751 38.1859C0.106523 38.8909 0.106524 57.1091 0.0146751 57.8141C-0.077174 58.5191 0.267935 59.2093 0.88704 59.5589C1.50614 59.9084 8.52477 63.3641 10.9192 67.8463C13.3137 72.3286 10.9051 83.131 10.9192 83.9851C10.9334 84.8391 11.4448 85.6063 12.2278 85.9479C13.0107 86.2895 33.4782 95.757 33.8188 95.762C34.1594 95.767 34.3531 95.8043 34.6912 95.762C35.0292 95.7197 35.4926 95.5076 35.9997 95.3258C36.5068 95.1441 42.3962 87.4548 47.9947 87.4745C53.5933 87.4943 59.4828 95.3617 59.9897 95.5439C60.4966 95.7261 60.9602 95.9378 61.2983 95.9801C61.6363 96.0223 61.83 95.9851 62.1706 95.9801C62.5113 95.9751 82.9787 86.5075 83.7617 86.166C84.5446 85.8244 85.056 85.0572 85.0702 84.2032C85.0844 83.3491 82.6618 72.3211 85.0702 67.8463C87.4786 63.3716 94.5577 59.8733 95.1024 59.5589C95.6471 59.2444 95.9804 58.6611 95.9748 58.0322C95.9691 57.4033 95.9691 38.5968 95.9748 37.9678C95.9804 37.3389 95.6471 36.7557 95.1024 36.4412ZM87.2511 54.7609C85.3372 58.0639 81.3783 58.5213 79.6179 60.8674C77.8576 63.2135 77.1458 64.8061 76.3466 67.6282C75.5473 70.4503 78.4354 75.3077 76.3466 79.4052C74.2577 83.5026 66.1848 86.9215 61.9525 86.166C57.7203 85.4104 53.3909 80.4825 52.7927 80.0594C52.1945 79.6364 51.8518 79.4091 51.2661 78.969C50.6803 78.5289 50.6803 17.2531 51.2661 16.813C51.8518 16.3729 52.1945 16.1456 52.7927 15.7226C53.3909 15.2995 57.7203 10.3716 61.9525 9.616C66.1848 8.86045 74.2577 12.2794 76.3466 16.3768C78.4354 20.4743 75.5473 25.3316 76.3466 28.1537C77.1458 30.9759 77.8785 32.5529 79.6179 34.9146C81.3573 37.2763 85.3555 37.8638 87.2511 41.2392C89.1467 44.6146 89.165 51.4578 87.2511 54.7609ZM44.7234 79.1871C44.1376 79.6271 43.7949 79.8545 43.1967 80.2775C42.5985 80.7006 38.2692 85.6285 34.0369 86.3841C29.8046 87.1396 21.7317 83.7207 19.6429 79.6233C17.554 75.5258 20.4421 70.6684 19.6429 67.8463C18.8436 65.0242 18.1109 63.4472 16.3715 61.0855C14.6321 58.7238 10.6339 58.1363 8.73832 54.7609C6.84272 51.3855 6.82441 44.5422 8.73832 41.2392C10.6522 37.9362 14.6112 37.4788 16.3715 35.1327C18.1318 32.7865 18.838 31.1924 19.6429 28.3718C20.4478 25.5513 17.4917 20.538 19.6429 16.3768C21.794 12.2156 29.8046 8.86045 34.0369 9.616C38.2692 10.3716 42.5985 15.2995 43.1967 15.7226C43.7949 16.1456 44.1376 16.3729 44.7234 16.813C45.3091 17.2531 45.3091 78.747 44.7234 79.1871Z"/>
</mask>
<path d="M95.1024 36.4412C94.5577 36.1268 87.4647 32.636 85.0702 28.1537C82.6757 23.6715 85.0844 12.8691 85.0702 12.015C85.056 11.1609 84.5446 10.3937 83.7617 10.0522C82.9787 9.71063 62.5113 0.243102 62.1706 0.238085C61.83 0.233068 61.6363 0.195829 61.2983 0.238085C60.9602 0.280341 60.4968 0.492504 59.9897 0.674267C59.4827 0.85603 53.5933 8.54532 47.9947 8.52555C42.3962 8.50577 36.5066 0.638395 35.9997 0.456176C35.4928 0.273957 35.0292 0.0622499 34.6912 0.0199941C34.3531 -0.0222617 34.1594 0.0149037 33.8188 0.0199941C33.4782 0.0250845 13.0107 9.71063 12.2278 10.0522C11.4448 10.3937 10.9334 11.1609 10.9192 12.015C10.9051 12.8691 13.3137 23.6715 10.9192 28.1537C8.52477 32.636 1.50614 36.0917 0.88704 36.4412C0.267935 36.7907 -0.0771729 37.4809 0.0146751 38.1859C0.106523 38.8909 0.106524 57.1091 0.0146751 57.8141C-0.077174 58.5191 0.267935 59.2093 0.88704 59.5589C1.50614 59.9084 8.52477 63.3641 10.9192 67.8463C13.3137 72.3286 10.9051 83.131 10.9192 83.9851C10.9334 84.8391 11.4448 85.6063 12.2278 85.9479C13.0107 86.2895 33.4782 95.757 33.8188 95.762C34.1594 95.767 34.3531 95.8043 34.6912 95.762C35.0292 95.7197 35.4926 95.5076 35.9997 95.3258C36.5068 95.1441 42.3962 87.4548 47.9947 87.4745C53.5933 87.4943 59.4828 95.3617 59.9897 95.5439C60.4966 95.7261 60.9602 95.9378 61.2983 95.9801C61.6363 96.0223 61.83 95.9851 62.1706 95.9801C62.5113 95.9751 82.9787 86.5075 83.7617 86.166C84.5446 85.8244 85.056 85.0572 85.0702 84.2032C85.0844 83.3491 82.6618 72.3211 85.0702 67.8463C87.4786 63.3716 94.5577 59.8733 95.1024 59.5589C95.6471 59.2444 95.9804 58.6611 95.9748 58.0322C95.9691 57.4033 95.9691 38.5968 95.9748 37.9678C95.9804 37.3389 95.6471 36.7557 95.1024 36.4412ZM87.2511 54.7609C85.3372 58.0639 81.3783 58.5213 79.6179 60.8674C77.8576 63.2135 77.1458 64.8061 76.3466 67.6282C75.5473 70.4503 78.4354 75.3077 76.3466 79.4052C74.2577 83.5026 66.1848 86.9215 61.9525 86.166C57.7203 85.4104 53.3909 80.4825 52.7927 80.0594C52.1945 79.6364 51.8518 79.4091 51.2661 78.969C50.6803 78.5289 50.6803 17.2531 51.2661 16.813C51.8518 16.3729 52.1945 16.1456 52.7927 15.7226C53.3909 15.2995 57.7203 10.3716 61.9525 9.616C66.1848 8.86045 74.2577 12.2794 76.3466 16.3768C78.4354 20.4743 75.5473 25.3316 76.3466 28.1537C77.1458 30.9759 77.8785 32.5529 79.6179 34.9146C81.3573 37.2763 85.3555 37.8638 87.2511 41.2392C89.1467 44.6146 89.165 51.4578 87.2511 54.7609ZM44.7234 79.1871C44.1376 79.6271 43.7949 79.8545 43.1967 80.2775C42.5985 80.7006 38.2692 85.6285 34.0369 86.3841C29.8046 87.1396 21.7317 83.7207 19.6429 79.6233C17.554 75.5258 20.4421 70.6684 19.6429 67.8463C18.8436 65.0242 18.1109 63.4472 16.3715 61.0855C14.6321 58.7238 10.6339 58.1363 8.73832 54.7609C6.84272 51.3855 6.82441 44.5422 8.73832 41.2392C10.6522 37.9362 14.6112 37.4788 16.3715 35.1327C18.1318 32.7865 18.838 31.1924 19.6429 28.3718C20.4478 25.5513 17.4917 20.538 19.6429 16.3768C21.794 12.2156 29.8046 8.86045 34.0369 9.616C38.2692 10.3716 42.5985 15.2995 43.1967 15.7226C43.7949 16.1456 44.1376 16.3729 44.7234 16.813C45.3091 17.2531 45.3091 78.747 44.7234 79.1871Z" fill="black"/>
<path d="M95.1024 36.4412L103.435 22.0071C103.215 21.88 103.029 21.7794 102.971 21.748C102.888 21.7031 102.811 21.6617 102.764 21.6366C102.641 21.5712 102.588 21.5434 102.482 21.4865C102.306 21.3924 102.098 21.2795 101.86 21.1443C101.367 20.8651 100.788 20.5159 100.225 20.1281C99.6343 19.7221 99.2538 19.4058 99.068 19.2287C98.82 18.9925 99.2492 19.3242 99.7707 20.3006L85.0702 28.1537L70.3697 36.0069C73.5437 41.9485 78.7536 45.8171 81.3353 47.5927C84.1843 49.5521 87.5771 51.3414 86.7697 50.8754L95.1024 36.4412ZM85.0702 28.1537L99.7707 20.3006C100.368 21.4186 100.58 22.2694 100.644 22.5505C100.714 22.865 100.705 22.9555 100.691 22.7455C100.66 22.2843 100.668 21.4336 100.778 20.2079C100.882 19.0424 101.046 17.8743 101.21 16.819C101.25 16.5575 101.289 16.3107 101.329 16.0638C101.365 15.8342 101.409 15.5627 101.446 15.3235C101.48 15.1025 101.532 14.7608 101.578 14.4046C101.601 14.2252 101.635 13.9407 101.665 13.6043C101.687 13.3618 101.75 12.6423 101.735 11.7388L85.0702 12.015L68.4058 12.2913C68.3917 11.4411 68.4504 10.7944 68.4639 10.6432C68.4857 10.398 68.5079 10.2232 68.5145 10.1709C68.5276 10.069 68.5318 10.0513 68.5062 10.2162C68.4834 10.3629 68.4552 10.5391 68.4118 10.811C68.3712 11.0658 68.3221 11.3745 68.2694 11.7144C68.0601 13.0648 67.774 15.0376 67.5771 17.2397C67.3856 19.3817 67.2414 22.1253 67.4328 24.977C67.6028 27.5117 68.1244 31.804 70.3697 36.0069L85.0702 28.1537ZM85.0702 12.015L101.735 11.7388C101.612 4.35787 97.1923 -2.27225 90.426 -5.22406L83.7617 10.0522L77.0973 25.3284C71.8969 23.0597 68.4999 17.964 68.4058 12.2913L85.0702 12.015ZM83.7617 10.0522L90.426 -5.22406C90.4307 -5.22201 89.2721 -5.75363 87.0704 -6.76634C85.038 -7.70118 82.3858 -8.92126 79.746 -10.1315C77.1124 -11.3389 74.4616 -12.5499 72.437 -13.4642C71.4333 -13.9174 70.5329 -14.3206 69.8496 -14.6198C69.5223 -14.7631 69.156 -14.9216 68.8214 -15.0598C68.6737 -15.1208 68.3875 -15.2379 68.0543 -15.3615C67.9061 -15.4164 67.5578 -15.544 67.1152 -15.6806C66.9003 -15.7469 66.4852 -15.8709 65.9562 -15.9938C65.6887 -16.056 64.2659 -16.3995 62.4161 -16.4268L62.1706 0.238085L61.9252 16.9029C60.0807 16.8758 58.6657 16.5335 58.4084 16.4737C57.8896 16.3531 57.4871 16.2326 57.2871 16.1709C56.8746 16.0437 56.5658 15.9297 56.4664 15.8929C56.3301 15.8423 56.2304 15.803 56.1868 15.7857C56.1374 15.766 56.1065 15.7532 56.0999 15.7505C56.0893 15.7461 56.1152 15.7568 56.1904 15.7891C56.2614 15.8196 56.3565 15.8608 56.4785 15.9142C56.9828 16.135 57.7435 16.475 58.7187 16.9154C60.652 17.7884 63.2309 18.9665 65.8546 20.1694C70.8727 22.4699 76.5192 25.0763 77.0973 25.3284L83.7617 10.0522ZM62.1706 0.238085L62.4161 -16.4268C62.6126 -16.4239 62.7565 -16.4165 62.7633 -16.4162C62.8575 -16.4115 62.5442 -16.4282 62.3153 -16.4361C61.9976 -16.4472 61.5328 -16.4565 60.9728 -16.4378C60.4038 -16.4188 59.8241 -16.374 59.231 -16.2999L61.2983 0.238085L63.3655 16.776C62.9415 16.8291 62.5128 16.8627 62.0858 16.8769C61.6678 16.8909 61.3361 16.8833 61.1516 16.8769C61.0671 16.8739 61.0083 16.8709 61.0076 16.8709C61.0075 16.8709 61.0096 16.871 61.0302 16.8721C61.0459 16.8729 61.0779 16.8745 61.113 16.8763C61.2625 16.8837 61.5584 16.8975 61.9252 16.9029L62.1706 0.238085ZM61.2983 0.238085L59.231 -16.2999C57.9778 -16.1432 56.9745 -15.8809 56.382 -15.7091C55.7642 -15.53 55.2597 -15.3501 54.9806 -15.248C54.7119 -15.1497 54.4387 -15.0439 54.384 -15.0228C54.2705 -14.9793 54.2998 -14.9912 54.3658 -15.0149L59.9897 0.674267L65.6136 16.3634C65.9332 16.2489 66.2106 16.1422 66.3372 16.0936C66.5225 16.0224 66.4813 16.0385 66.4342 16.0557C66.3766 16.0768 66.083 16.1844 65.663 16.3061C65.2683 16.4205 64.4498 16.6405 63.3655 16.776L61.2983 0.238085ZM59.9897 0.674267L54.3658 -15.0149C52.8951 -14.4877 51.8125 -13.8646 51.2583 -13.5252C50.6393 -13.1462 50.1567 -12.7955 49.8489 -12.5619C49.2474 -12.1053 48.7943 -11.698 48.5735 -11.4957C48.1184 -11.0787 47.7426 -10.6919 47.5878 -10.532C47.337 -10.2732 46.75 -9.65032 46.6225 -9.51648C46.0451 -8.91043 45.504 -8.36944 44.9697 -7.90513C44.389 -7.40056 44.1569 -7.28788 44.2965 -7.36256C44.354 -7.39333 45.7183 -8.14926 48.0536 -8.14101L47.9947 8.52555L47.9359 25.1921C53.0705 25.2102 57.2704 23.5006 60.0226 22.0279C62.8568 20.5114 65.1785 18.6941 66.8334 17.2561C68.5346 15.7778 69.9109 14.3637 70.7553 13.4775C71.3386 12.8652 71.3387 12.8577 71.529 12.6613C71.5946 12.5935 71.4028 12.7965 71.0924 13.0809C70.944 13.2169 70.5534 13.5707 70.0043 13.9875C69.7824 14.156 68.1204 15.4648 65.6136 16.3634L59.9897 0.674267ZM47.9947 8.52555L48.0536 -8.14101C50.4497 -8.13255 51.8377 -7.33498 51.8797 -7.31178C52.0112 -7.23927 51.7681 -7.3637 51.1759 -7.89144C50.6309 -8.37707 50.0815 -8.93995 49.4982 -9.5664C49.3582 -9.71675 48.7884 -10.3357 48.5268 -10.6116C48.3715 -10.7754 47.9952 -11.1712 47.5385 -11.5983C47.3174 -11.8049 46.861 -12.2234 46.2536 -12.6928C45.9428 -12.9329 45.4531 -13.295 44.823 -13.6865C44.2605 -14.036 43.151 -14.6839 41.6377 -15.2279L35.9997 0.456176L30.3617 16.1403C27.7857 15.2143 26.0877 13.85 25.8721 13.6834C25.317 13.2545 24.9231 12.8905 24.7744 12.7515C24.4624 12.4597 24.27 12.2516 24.3352 12.3204C24.5147 12.5097 24.5318 12.5355 25.1027 13.1486C25.9413 14.0492 27.3092 15.4885 28.9998 16.995C30.6432 18.4594 32.9539 20.3169 35.7801 21.8758C38.5169 23.3854 42.7405 25.1738 47.9359 25.1921L47.9947 8.52555ZM35.9997 0.456176L41.6377 -15.2279C41.6989 -15.2059 41.725 -15.1952 41.6083 -15.2401C41.549 -15.2628 41.2765 -15.3684 41.0049 -15.4678C40.7239 -15.5705 40.2193 -15.7501 39.6016 -15.929C39.0091 -16.1005 38.0082 -16.3617 36.7584 -16.518L34.6912 0.0199941L32.6239 16.558C31.5431 16.4229 30.727 16.2039 30.3323 16.0897C29.9124 15.9681 29.6188 15.8607 29.5593 15.8389C29.5092 15.8206 29.4688 15.8048 29.6496 15.8743C29.7729 15.9217 30.0471 16.0272 30.3617 16.1403L35.9997 0.456176ZM34.6912 0.0199941L36.7584 -16.518C36.166 -16.592 35.5867 -16.6368 35.018 -16.6559C34.4582 -16.6746 33.9934 -16.6654 33.6753 -16.6543C33.4451 -16.6463 33.1329 -16.6297 33.2253 -16.6343C33.2312 -16.6346 33.3743 -16.6419 33.5698 -16.6448L33.8188 0.0199941L34.0678 16.6848C34.4336 16.6793 34.7287 16.6655 34.8772 16.6581C34.9121 16.6564 34.944 16.6547 34.9595 16.6539C34.9798 16.6529 34.9818 16.6528 34.9814 16.6528C34.9804 16.6528 34.9214 16.6558 34.8366 16.6588C34.6518 16.6652 34.32 16.6728 33.9023 16.6588C33.4756 16.6445 33.0473 16.6109 32.6239 16.558L34.6912 0.0199941ZM33.8188 0.0199941L33.5698 -16.6448C31.6773 -16.6165 30.223 -16.2572 29.9519 -16.1928C29.4128 -16.0646 28.9901 -15.9355 28.7718 -15.8666C28.3221 -15.7246 27.9686 -15.5921 27.8188 -15.5353C27.4815 -15.4073 27.1923 -15.2862 27.0439 -15.2236C26.7072 -15.0813 26.3393 -14.9185 26.0118 -14.7718C25.3276 -14.4653 24.4265 -14.0526 23.4228 -13.589C21.3982 -12.6538 18.7472 -11.415 16.1144 -10.1807C13.4761 -8.94381 10.823 -7.69592 8.7942 -6.74235C6.53106 -5.67863 5.47519 -5.18558 5.5634 -5.22407L12.2278 10.0522L18.8922 25.3284C19.5581 25.0379 25.3188 22.3189 30.2639 20.0005C32.8884 18.7701 35.4671 17.5652 37.4003 16.6722C38.3756 16.2218 39.1356 15.8743 39.639 15.6488C39.7607 15.5943 39.8553 15.5523 39.9258 15.5213C40.0005 15.4885 40.0255 15.4781 40.0137 15.4831C40.0066 15.4861 39.9747 15.4995 39.9242 15.5201C39.8796 15.5382 39.778 15.5792 39.6394 15.6318C39.5383 15.6701 39.2243 15.7886 38.8047 15.9211C38.6013 15.9852 38.1913 16.1108 37.6624 16.2365C37.4015 16.2986 35.955 16.6566 34.0678 16.6848L33.8188 0.0199941ZM12.2278 10.0522L5.5634 -5.22407C-1.20273 -2.27229 -5.62279 4.35778 -5.74515 11.7388L10.9192 12.015L27.5836 12.2913C27.4896 17.9641 24.0924 23.0598 18.8922 25.3284L12.2278 10.0522ZM10.9192 12.015L-5.74515 11.7388C-5.76013 12.6423 -5.69762 13.3618 -5.67599 13.6043C-5.64599 13.9407 -5.61146 14.2252 -5.58848 14.4046C-5.54288 14.7608 -5.49076 15.1025 -5.4565 15.3235C-5.41941 15.5627 -5.37591 15.8342 -5.33926 16.0638C-5.29987 16.3107 -5.26063 16.5575 -5.2201 16.819C-5.05657 17.8743 -4.89281 19.0424 -4.78861 20.2079C-4.67904 21.4336 -4.67093 22.2843 -4.70188 22.7455C-4.71596 22.9555 -4.72493 22.865 -4.65417 22.5505C-4.59094 22.2694 -4.37858 21.4186 -3.78129 20.3006L10.9192 28.1537L25.6197 36.0069C27.865 31.804 28.3866 27.5117 28.5567 24.977C28.748 22.1253 28.6038 19.3817 28.4123 17.2397C28.2154 15.0376 27.9293 13.0648 27.7201 11.7144C27.6674 11.3745 27.6182 11.0658 27.5776 10.811C27.5342 10.5391 27.506 10.3629 27.4832 10.2162C27.4577 10.0513 27.4618 10.069 27.4749 10.1709C27.4816 10.2232 27.5037 10.398 27.5256 10.6432C27.539 10.7944 27.5977 11.4411 27.5836 12.2913L10.9192 12.015ZM10.9192 28.1537L-3.78129 20.3006C-3.26913 19.3418 -2.84838 19.0138 -3.08568 19.2406C-3.26434 19.4113 -3.63534 19.721 -4.21611 20.121C-4.77097 20.5032 -5.3431 20.8486 -5.83446 21.1269C-6.07236 21.2616 -6.28049 21.3746 -6.45655 21.4686C-6.55408 21.5207 -6.62347 21.5574 -6.7328 21.6153C-6.74869 21.6238 -7.03383 21.7737 -7.30664 21.9277L0.88704 36.4412L9.08072 50.9547C8.57945 51.2377 11.7434 49.6034 14.6909 47.5735C17.2883 45.7846 22.4559 41.9294 25.6197 36.0069L10.9192 28.1537ZM0.88704 36.4412L-7.30664 21.9277C-13.8397 25.616 -17.4816 32.8995 -16.5123 40.3391L0.0146751 38.1859L16.5417 36.0328C17.3272 42.0623 14.3756 47.9654 9.08072 50.9547L0.88704 36.4412ZM0.0146751 38.1859L-16.5123 40.3391C-16.5728 39.8752 -16.5984 39.5174 -16.6053 39.421C-16.6158 39.2736 -16.6215 39.1631 -16.6239 39.1142C-16.6287 39.0159 -16.6298 38.9664 -16.6288 39.0004C-16.6271 39.0589 -16.6238 39.2022 -16.6199 39.4559C-16.6124 39.9498 -16.6056 40.665 -16.6 41.5564C-16.5888 43.3277 -16.5831 45.6556 -16.5831 48C-16.5831 50.3445 -16.5888 52.6724 -16.6 54.4437C-16.6056 55.3351 -16.6124 56.0503 -16.6199 56.5442C-16.6238 56.7979 -16.6271 56.9412 -16.6288 56.9997C-16.6298 57.0337 -16.6287 56.9842 -16.6239 56.8858C-16.6215 56.8369 -16.6158 56.7265 -16.6053 56.5791C-16.5984 56.4827 -16.5728 56.1249 -16.5123 55.6609L0.0146751 57.8141L16.5417 59.9673C16.6423 59.1948 16.6687 58.5334 16.6699 58.5098C16.6801 58.3011 16.6864 58.1092 16.6904 57.9708C16.6988 57.6847 16.7048 57.3636 16.7096 57.0503C16.7193 56.4102 16.7268 55.5809 16.7327 54.6542C16.7444 52.7893 16.7502 50.3864 16.7502 48C16.7502 45.6137 16.7444 43.2108 16.7327 41.3459C16.7268 40.4192 16.7193 39.5899 16.7096 38.9497C16.7048 38.6364 16.6988 38.3154 16.6904 38.0292C16.6864 37.8909 16.6801 37.699 16.6699 37.4903C16.6687 37.4667 16.6423 36.8053 16.5417 36.0328L0.0146751 38.1859ZM0.0146751 57.8141L-16.5123 55.6609C-17.4816 63.1005 -13.8397 70.3841 -7.30664 74.0723L0.88704 59.5589L9.08072 45.0454C14.3756 48.0346 17.3272 53.9377 16.5417 59.9673L0.0146751 57.8141ZM0.88704 59.5589L-7.30664 74.0723C-7.03383 74.2264 -6.74869 74.3763 -6.7328 74.3847C-6.62348 74.4427 -6.55408 74.4793 -6.45655 74.5314C-6.28049 74.6255 -6.07236 74.7385 -5.83446 74.8732C-5.3431 75.1515 -4.77097 75.4969 -4.21611 75.8791C-3.63534 76.279 -3.26434 76.5888 -3.08568 76.7595C-2.84837 76.9862 -3.26913 76.6582 -3.78129 75.6995L10.9192 67.8463L25.6197 59.9931C22.4559 54.0706 17.2883 50.2155 14.6909 48.4266C11.7434 46.3967 8.57945 44.7624 9.08072 45.0454L0.88704 59.5589ZM10.9192 67.8463L-3.78129 75.6995C-4.37858 74.5814 -4.59094 73.7307 -4.65417 73.4496C-4.72493 73.1351 -4.71596 73.0446 -4.70187 73.2546C-4.67093 73.7157 -4.67903 74.5665 -4.78861 75.7921C-4.89281 76.9577 -5.05656 78.1258 -5.2201 79.1811C-5.26063 79.4426 -5.29987 79.6894 -5.33926 79.9362C-5.37591 80.1659 -5.41941 80.4374 -5.45649 80.6766C-5.49076 80.8976 -5.54288 81.2393 -5.58848 81.5954C-5.61146 81.7749 -5.64599 82.0593 -5.67599 82.3957C-5.69761 82.6382 -5.76012 83.3577 -5.74515 84.2612L10.9192 83.9851L27.5836 83.7089C27.5977 84.5591 27.539 85.2058 27.5255 85.357C27.5037 85.6021 27.4816 85.7769 27.4749 85.8292C27.4618 85.9311 27.4577 85.9488 27.4832 85.7839C27.506 85.6372 27.5342 85.461 27.5776 85.1891C27.6182 84.9343 27.6674 84.6256 27.7201 84.2857C27.9293 82.9353 28.2154 80.9625 28.4123 78.7604C28.6038 76.6184 28.748 73.8747 28.5567 71.0231C28.3866 68.4884 27.865 64.1961 25.6197 59.9931L10.9192 67.8463ZM10.9192 83.9851L-5.74515 84.2612C-5.62283 91.6422 -1.20276 98.2724 5.5634 101.224L12.2278 85.9479L18.8922 70.6716C24.0924 72.9403 27.4896 78.036 27.5836 83.7089L10.9192 83.9851ZM12.2278 85.9479L5.5634 101.224C5.55869 101.222 6.71736 101.754 8.91906 102.766C10.9514 103.701 13.6036 104.921 16.2435 106.132C18.8771 107.339 21.5279 108.55 23.5525 109.464C24.5562 109.918 25.4565 110.321 26.1398 110.62C26.4671 110.763 26.8334 110.922 27.1681 111.06C27.3157 111.121 27.602 111.238 27.9352 111.362C28.0834 111.416 28.4317 111.544 28.8742 111.681C29.0891 111.747 29.5042 111.871 30.0332 111.994C30.3008 112.056 31.7235 112.4 33.5734 112.427L33.8188 95.762L34.0642 79.0971C35.9088 79.1243 37.3237 79.4666 37.5811 79.5264C38.0998 79.647 38.5023 79.7674 38.7023 79.8291C39.1148 79.9564 39.4236 80.0703 39.523 80.1072C39.6593 80.1577 39.7591 80.1971 39.8026 80.2144C39.852 80.2341 39.883 80.2469 39.8895 80.2495C39.9001 80.2539 39.8742 80.2433 39.799 80.211C39.728 80.1805 39.6329 80.1393 39.5109 80.0859C39.0067 79.8651 38.246 79.525 37.2707 79.0847C35.3374 78.2116 32.7585 77.0336 30.1348 75.8307C25.1168 73.5302 19.4702 70.9238 18.8922 70.6716L12.2278 85.9479ZM33.8188 95.762L33.5734 112.427C33.3768 112.424 33.2329 112.417 33.2261 112.416C33.1319 112.412 33.4452 112.428 33.6741 112.436C33.9918 112.447 34.4566 112.457 35.0167 112.438C35.5857 112.419 36.1654 112.374 36.7584 112.3L34.6912 95.762L32.6239 79.224C33.0479 79.171 33.4766 79.1374 33.9036 79.1232C34.3216 79.1092 34.6534 79.1168 34.8378 79.1232C34.9224 79.1262 34.9812 79.1292 34.9818 79.1292C34.982 79.1292 34.9799 79.1291 34.9593 79.128C34.9436 79.1272 34.9115 79.1256 34.8764 79.1238C34.7269 79.1164 34.4311 79.1025 34.0642 79.0971L33.8188 95.762ZM34.6912 95.762L36.7584 112.3C38.0117 112.143 39.015 111.881 39.6075 111.709C40.2253 111.53 40.7298 111.35 41.0089 111.248C41.2776 111.15 41.5508 111.044 41.6055 111.023C41.719 110.979 41.6897 110.991 41.6237 111.015L35.9997 95.3258L30.3758 79.6367C30.0562 79.7512 29.7788 79.8579 29.6522 79.9065C29.4669 79.9777 29.508 79.9616 29.5552 79.9444C29.6128 79.9233 29.9064 79.8157 30.3264 79.694C30.7211 79.5796 31.5396 79.3596 32.6239 79.224L34.6912 95.762ZM35.9997 95.3258L41.6237 111.015C43.0944 110.488 44.1769 109.865 44.7312 109.525C45.3502 109.146 45.8327 108.796 46.1406 108.562C46.742 108.105 47.1951 107.698 47.4159 107.496C47.8711 107.079 48.2468 106.692 48.4017 106.532C48.6524 106.273 49.2394 105.65 49.3669 105.517C49.9444 104.911 50.4855 104.37 51.0198 103.905C51.6005 103.401 51.8325 103.288 51.693 103.363C51.6354 103.393 50.2712 104.149 47.9359 104.141L47.9947 87.4745L48.0536 70.808C42.919 70.7898 38.7191 72.4995 35.9669 73.9721C33.1326 75.4887 30.8109 77.306 29.156 78.744C27.4548 80.2222 26.0786 81.6364 25.2342 82.5226C24.6508 83.1349 24.6508 83.1424 24.4605 83.3388C24.3948 83.4066 24.5866 83.2036 24.897 82.9191C25.0454 82.7832 25.4361 82.4294 25.9851 82.0126C26.207 81.8441 27.869 80.5353 30.3758 79.6367L35.9997 95.3258ZM47.9947 87.4745L47.9359 104.141C45.5398 104.133 44.1518 103.335 44.1097 103.312C43.9783 103.239 44.2213 103.364 44.8136 103.892C45.3586 104.377 45.9079 104.94 46.4912 105.566C46.6312 105.717 47.2011 106.336 47.4626 106.612C47.6179 106.775 47.9942 107.171 48.451 107.598C48.672 107.805 49.1284 108.223 49.7358 108.693C50.0466 108.933 50.5363 109.295 51.1664 109.687C51.7289 110.036 52.8384 110.684 54.3517 111.228L59.9897 95.5439L65.6278 79.8598C68.2037 80.7858 69.9017 82.15 70.1174 82.3167C70.6725 82.7456 71.0663 83.1096 71.215 83.2486C71.5271 83.5403 71.7194 83.7484 71.6542 83.6797C71.4748 83.4903 71.4576 83.4646 70.8867 82.8515C70.0482 81.9509 68.6802 80.5115 66.9896 79.0051C65.3463 77.5407 63.0355 75.6832 60.2094 74.1243C57.4726 72.6147 53.2489 70.8263 48.0536 70.808L47.9947 87.4745ZM59.9897 95.5439L54.3517 111.228C54.2905 111.206 54.2644 111.195 54.3811 111.24C54.4403 111.263 54.7128 111.368 54.9844 111.468C55.2654 111.571 55.77 111.75 56.3878 111.929C56.9803 112.101 57.9812 112.362 59.231 112.518L61.2983 95.9801L63.3655 79.4421C64.4463 79.5772 65.2625 79.7962 65.6572 79.9104C66.0771 80.032 66.3708 80.1394 66.4302 80.1612C66.4803 80.1795 66.5207 80.1954 66.3399 80.1258C66.2166 80.0784 65.9424 79.9729 65.6278 79.8598L59.9897 95.5439ZM61.2983 95.9801L59.231 112.518C59.8241 112.592 60.4038 112.637 60.9728 112.656C61.5328 112.675 61.9976 112.665 62.3153 112.654C62.5442 112.646 62.8575 112.63 62.7633 112.634C62.7565 112.635 62.6126 112.642 62.4161 112.645L62.1706 95.9801L61.9252 79.3152C61.5584 79.3206 61.2625 79.3345 61.113 79.3419C61.0779 79.3437 61.0459 79.3453 61.0302 79.3461C61.0096 79.3472 61.0075 79.3473 61.0076 79.3473C61.0083 79.3472 61.0671 79.3443 61.1516 79.3413C61.3361 79.3349 61.6678 79.3273 62.0858 79.3412C62.5128 79.3555 62.9415 79.3891 63.3655 79.4421L61.2983 95.9801ZM62.1706 95.9801L62.4161 112.645C64.2659 112.618 65.6887 112.274 65.9562 112.212C66.4852 112.089 66.9003 111.965 67.1152 111.899C67.5578 111.762 67.9061 111.635 68.0543 111.58C68.3875 111.456 68.6737 111.339 68.8214 111.278C69.156 111.14 69.5223 110.981 69.8496 110.838C70.5329 110.539 71.4333 110.136 72.437 109.682C74.4616 108.768 77.1124 107.557 79.746 106.35C82.3858 105.139 85.038 103.919 87.0704 102.985C89.2721 101.972 90.4307 101.44 90.426 101.442L83.7617 86.166L77.0973 70.8897C76.5193 71.1419 70.8727 73.7483 65.8546 76.0488C63.2309 77.2516 60.652 78.4297 58.7187 79.3027C57.7435 79.7431 56.9828 80.0831 56.4785 80.304C56.3565 80.3574 56.2614 80.3986 56.1904 80.4291C56.1152 80.4614 56.0893 80.472 56.0999 80.4676C56.1065 80.4649 56.1374 80.4522 56.1868 80.4325C56.2304 80.4152 56.3301 80.3758 56.4664 80.3253C56.5658 80.2884 56.8746 80.1745 57.2872 80.0472C57.4871 79.9855 57.8896 79.8651 58.4084 79.7445C58.6657 79.6846 60.0807 79.3424 61.9252 79.3152L62.1706 95.9801ZM83.7617 86.166L90.426 101.442C97.1923 98.4904 101.612 91.8603 101.735 84.4794L85.0702 84.2032L68.4058 83.9269C68.4999 78.2542 71.8969 73.1584 77.0973 70.8897L83.7617 86.166ZM85.0702 84.2032L101.735 84.4794C101.75 83.5744 101.687 82.8535 101.666 82.6176C101.636 82.2846 101.602 82.0028 101.58 81.8252C101.535 81.4724 101.483 81.132 101.449 80.9096C101.412 80.6694 101.369 80.3952 101.332 80.1618C101.292 79.9113 101.253 79.6595 101.212 79.3926C101.047 78.3151 100.88 77.1139 100.774 75.9138C100.663 74.6525 100.653 73.7675 100.686 73.2786C100.701 73.0544 100.711 73.1381 100.641 73.451C100.579 73.7271 100.363 74.5988 99.7462 75.7453L85.0702 67.8463L70.3942 59.9474C68.1122 64.1874 67.5949 68.5344 67.4264 71.0609C67.2354 73.925 67.3793 76.6894 67.5705 78.8512C67.7672 81.0742 68.0531 83.0698 68.263 84.4401C68.3159 84.7852 68.3652 85.0985 68.4062 85.3582C68.4499 85.6349 68.4785 85.8159 68.5018 85.9677C68.5279 86.1373 68.5247 86.1258 68.5126 86.0305C68.5064 85.9818 68.4849 85.8109 68.4635 85.57C68.4507 85.4262 68.3917 84.7785 68.4058 83.9269L85.0702 84.2032ZM85.0702 67.8463L99.7462 75.7453C99.2309 76.7028 98.8132 77.0226 99.0678 76.7803C99.2604 76.597 99.6464 76.2766 100.239 75.8684C100.806 75.4782 101.386 75.1272 101.879 74.8472C102.117 74.7116 102.325 74.5985 102.5 74.5046C102.603 74.4491 102.66 74.4192 102.778 74.3558C102.825 74.331 102.901 74.2902 102.982 74.2463C103.039 74.2154 103.22 74.117 103.435 73.993L95.1024 59.5589L86.7697 45.1247C87.5344 44.6833 84.1884 46.4486 81.3312 48.4166C78.7525 50.1927 73.5699 54.047 70.3942 59.9474L85.0702 67.8463ZM95.1024 59.5589L103.435 73.993C109.183 70.6748 112.7 64.5197 112.641 57.8831L95.9748 58.0322L79.3088 58.1814C79.2606 52.8026 82.1111 47.8141 86.7697 45.1247L95.1024 59.5589ZM95.9748 58.0322L112.641 57.8831C112.641 57.8916 112.64 57.6284 112.64 57C112.639 56.4288 112.639 55.6436 112.638 54.714C112.638 52.8554 112.637 50.4282 112.637 48C112.637 45.5718 112.638 43.1447 112.638 41.2861C112.639 40.3565 112.639 39.5713 112.64 39.0001C112.64 38.3713 112.641 38.1089 112.641 38.1181L95.9748 37.9678L79.3088 37.8176C79.3022 38.5471 79.3022 57.4534 79.3088 58.1814L95.9748 58.0322ZM95.9748 37.9678L112.641 38.1181C112.701 31.4798 109.182 25.3249 103.435 22.0071L95.1024 36.4412L86.7697 50.8754C82.1119 48.1864 79.2603 43.198 79.3088 37.8176L95.9748 37.9678ZM87.2511 54.7609L72.8304 46.4049C74.2765 43.9094 76.3169 43.0175 75.1648 43.6699C75.0435 43.7386 74.9148 43.8103 74.7252 43.9159C74.5537 44.0115 74.32 44.1416 74.079 44.2783C73.604 44.5477 72.9128 44.948 72.1584 45.4417C70.6914 46.4016 68.3508 48.1136 66.2866 50.8647L79.6179 60.8674L92.9493 70.8701C91.7652 72.4482 90.5797 73.2231 90.4099 73.3342C90.304 73.4035 90.297 73.4014 90.5251 73.272C90.6357 73.2093 90.7583 73.1409 90.9458 73.0365C91.1151 72.9421 91.3481 72.8125 91.5891 72.676C93.335 71.6874 98.3119 68.9154 101.672 63.1168L87.2511 54.7609ZM79.6179 60.8674L66.2866 50.8647C63.1027 55.1082 61.5726 58.6306 60.3106 63.0866L76.3466 67.6282L92.3825 72.1699C92.6603 71.1891 92.7396 71.0879 92.6658 71.2427C92.6291 71.3197 92.6014 71.3636 92.6137 71.3439C92.6352 71.3095 92.7265 71.167 92.9493 70.8701L79.6179 60.8674ZM76.3466 67.6282L60.3106 63.0866C59.6894 65.2799 59.5419 67.2456 59.5362 68.7116C59.5305 70.1752 59.6674 71.4466 59.7912 72.3485C59.915 73.2506 60.069 74.0788 60.1696 74.6106C60.2933 75.2649 60.3473 75.5334 60.4092 75.8896C60.5249 76.5559 60.437 76.3147 60.4578 75.6839C60.4829 74.9224 60.6631 73.4734 61.4981 71.8354L76.3466 79.4052L91.195 86.9749C94.8993 79.7088 93.68 72.6574 93.2512 70.1873C93.1325 69.5039 92.9859 68.7527 92.9226 68.4181C92.8825 68.2056 92.8562 68.0621 92.8372 67.9515C92.8184 67.8426 92.8134 67.8053 92.8151 67.817C92.8166 67.8286 92.8297 67.924 92.8424 68.0831C92.855 68.2416 92.8706 68.5018 92.8693 68.8414C92.8668 69.4855 92.8039 70.6821 92.3825 72.1699L76.3466 67.6282ZM76.3466 79.4052L61.4981 71.8354C61.9973 70.8561 62.5132 70.205 62.8268 69.851C63.1482 69.4881 63.3848 69.2936 63.4602 69.2339C63.5821 69.1373 63.4563 69.2515 63.0748 69.4244C62.9108 69.4987 62.7506 69.5603 62.612 69.6059C62.4703 69.6524 62.3981 69.6669 62.4092 69.6647C62.4109 69.6643 62.5879 69.6275 62.9292 69.6117C63.2481 69.5969 63.9341 69.5896 64.8816 69.7587L61.9525 86.166L59.0235 102.573C65.9486 103.81 72.7063 101.656 76.8319 99.7865C80.8464 97.9675 87.5783 94.0692 91.195 86.9749L76.3466 79.4052ZM61.9525 86.166L64.8816 69.7587C65.638 69.8938 66.1892 70.0831 66.5085 70.2096C66.8312 70.3375 67.0176 70.4413 67.0618 70.4664C67.1173 70.498 66.9475 70.4026 66.5626 70.0877C66.2027 69.7933 65.8282 69.451 65.4167 69.0563C65.3142 68.958 65.2146 68.8615 65.1032 68.7535C65.0068 68.6599 64.8617 68.5189 64.7325 68.3948C64.6126 68.2796 64.3943 68.0707 64.1464 67.8457C64.0184 67.7296 63.8242 67.5561 63.5877 67.3572C63.3806 67.183 62.9644 66.8395 62.4162 66.4519L52.7927 80.0594L43.1692 93.667C42.6585 93.3058 42.2869 92.9975 42.1316 92.8669C41.9468 92.7115 41.8114 92.5898 41.749 92.5331C41.6323 92.4272 41.5724 92.3683 41.6364 92.4298C41.6911 92.4824 41.7554 92.5448 41.8918 92.6772C42.0133 92.795 42.17 92.9469 42.3456 93.1153C43.0463 93.7872 44.1309 94.8034 45.4571 95.8883C46.7584 96.9528 48.5018 98.2575 50.5781 99.4388C52.5905 100.584 55.4843 101.941 59.0235 102.573L61.9525 86.166ZM52.7927 80.0594L62.4162 66.4519C62.229 66.3194 62.0657 66.2051 61.9343 66.1133C61.7931 66.0146 61.7108 65.9571 61.6274 65.8983C61.4974 65.8067 61.4061 65.7408 61.2778 65.6444L51.2661 78.969L41.2544 92.2935C42.0948 92.925 42.8896 93.4692 43.1692 93.667L52.7927 80.0594ZM51.2661 78.969L61.2778 65.6444C65.0784 68.5001 66.4743 72.1468 66.6361 72.5351C67.0968 73.6401 67.331 74.5472 67.4252 74.9309C67.6289 75.7609 67.7135 76.4015 67.7337 76.5531C67.7887 76.966 67.8006 77.2081 67.7917 77.0773C67.7802 76.9073 67.7578 76.4641 67.7321 75.6576C67.6824 74.1025 67.6382 71.799 67.602 68.9234C67.5299 63.2049 67.4934 55.5658 67.4934 47.891C67.4934 40.2162 67.5299 32.5771 67.602 26.8586C67.6382 23.983 67.6824 21.6794 67.7321 20.1244C67.7578 19.3179 67.7802 18.8747 67.7917 18.7047C67.8006 18.5739 67.7887 18.816 67.7337 19.2289C67.7135 19.3805 67.6289 20.0211 67.4252 20.8511C67.331 21.2348 67.0968 22.1419 66.6361 23.2469C66.4743 23.6351 65.0784 27.2819 61.2778 30.1375L51.2661 16.813L41.2543 3.48849C37.4447 6.351 36.0396 10.012 35.8688 10.4219C35.3992 11.5485 35.156 12.4846 35.053 12.9043C34.8315 13.8066 34.7294 14.5482 34.6921 14.8287C34.6028 15.4993 34.5577 16.1105 34.5345 16.4528C34.482 17.229 34.4449 18.1478 34.4157 19.0598C34.3556 20.9417 34.3083 23.501 34.2713 26.4388C34.1969 32.3469 34.1601 40.1368 34.1601 47.891C34.1601 55.6452 34.1969 63.4351 34.2713 69.3432C34.3083 72.281 34.3556 74.8403 34.4157 76.7222C34.4449 77.6342 34.482 78.553 34.5345 79.3292C34.5577 79.6715 34.6028 80.2827 34.6921 80.9533C34.7294 81.2338 34.8315 81.9754 35.053 82.8776C35.156 83.2974 35.3992 84.2334 35.8688 85.3601C36.0396 85.7699 37.4447 89.431 41.2544 92.2935L51.2661 78.969ZM51.2661 16.813L61.2778 30.1375C61.4061 30.0412 61.4974 29.9753 61.6274 29.8837C61.7108 29.8249 61.7931 29.7674 61.9343 29.6687C62.0657 29.5768 62.229 29.4626 62.4162 29.3301L52.7927 15.7226L43.1692 2.11499C42.8896 2.31273 42.0947 2.85704 41.2543 3.48849L51.2661 16.813ZM52.7927 15.7226L62.4162 29.3301C62.9644 28.9425 63.3806 28.599 63.5877 28.4248C63.8242 28.2259 64.0184 28.0524 64.1464 27.9363C64.3943 27.7113 64.6126 27.5024 64.7325 27.3872C64.8617 27.263 65.0068 27.122 65.1032 27.0285C65.2145 26.9205 65.3142 26.824 65.4167 26.7257C65.8282 26.331 66.2027 25.9887 66.5626 25.6942C66.9475 25.3794 67.1173 25.284 67.0618 25.3156C67.0176 25.3407 66.8312 25.4445 66.5085 25.5724C66.1892 25.6989 65.638 25.8882 64.8816 26.0233L61.9525 9.616L59.0235 -6.79126C55.4844 -6.15945 52.5905 -4.80174 50.5781 -3.65678C48.5018 -2.47548 46.7584 -1.17079 45.4571 -0.106311C44.1309 0.97855 43.0463 1.99475 42.3456 2.66668C42.17 2.83504 42.0133 2.98695 41.8918 3.10481C41.7554 3.2372 41.6911 3.29963 41.6364 3.35217C41.5724 3.41372 41.6323 3.35476 41.749 3.24886C41.8114 3.19224 41.9468 3.07049 42.1315 2.91511C42.2869 2.78447 42.6585 2.4762 43.1692 2.11499L52.7927 15.7226ZM61.9525 9.616L64.8816 26.0233C63.9341 26.1924 63.2481 26.1851 62.9292 26.1703C62.5879 26.1545 62.4109 26.1177 62.4092 26.1173C62.3981 26.1151 62.4703 26.1296 62.6119 26.1761C62.7506 26.2217 62.9108 26.2833 63.0748 26.3576C63.4563 26.5304 63.5821 26.6447 63.4602 26.5481C63.3848 26.4884 63.1482 26.2939 62.8268 25.931C62.5132 25.577 61.9973 24.9259 61.4981 23.9466L76.3466 16.3768L91.195 8.8071C87.5784 1.71278 80.8464 -2.18547 76.8319 -4.00448C72.7063 -5.87376 65.9486 -8.02754 59.0235 -6.79126L61.9525 9.616ZM76.3466 16.3768L61.4981 23.9466C60.6631 22.3086 60.4829 20.8596 60.4578 20.098C60.437 19.4673 60.5249 19.2261 60.4092 19.8924C60.3473 20.2486 60.2933 20.5171 60.1696 21.1714C60.069 21.7032 59.915 22.5314 59.7912 23.4335C59.6674 24.3354 59.5305 25.6068 59.5362 27.0704C59.5419 28.5364 59.6894 30.5021 60.3106 32.6954L76.3466 28.1537L92.3825 23.6121C92.8039 25.0999 92.8668 26.2964 92.8693 26.9406C92.8706 27.2802 92.855 27.5403 92.8424 27.6989C92.8297 27.858 92.8166 27.9534 92.8151 27.965C92.8134 27.9767 92.8184 27.9393 92.8372 27.8305C92.8562 27.7199 92.8825 27.5764 92.9226 27.3639C92.9859 27.0293 93.1325 26.2781 93.2512 25.5946C93.68 23.1246 94.8993 16.0732 91.195 8.8071L76.3466 16.3768ZM76.3466 28.1537L60.3106 32.6954C61.6063 37.2701 63.1727 40.6903 66.1981 44.7982L79.6179 34.9146L93.0378 25.031C92.5715 24.3979 92.5711 24.3198 92.6537 24.4918C92.7219 24.6339 92.6427 24.5309 92.3825 23.6121L76.3466 28.1537ZM79.6179 34.9146L66.1981 44.7982C68.216 47.5381 70.5125 49.2621 71.9266 50.2206C72.6591 50.7171 73.3328 51.1241 73.7957 51.3987C74.0299 51.5375 74.2603 51.672 74.4278 51.7698C74.6128 51.8778 74.742 51.9534 74.8615 52.0244C76.0017 52.702 74.0777 51.8192 72.7192 49.4002L87.2511 41.2392L101.783 33.0782C98.5289 27.2839 93.6581 24.4196 91.8904 23.3691C91.6464 23.2241 91.4127 23.0877 91.2376 22.9854C91.045 22.8729 90.918 22.7987 90.7996 22.7285C90.5575 22.5849 90.5456 22.5718 90.6291 22.6284C90.7451 22.707 91.8895 23.4719 93.0378 25.031L79.6179 34.9146ZM87.2511 41.2392L72.7192 49.4002C72.3828 48.8012 72.2038 48.3367 72.118 48.088C72.0287 47.8291 71.9962 47.6749 71.99 47.6448C71.9826 47.6084 72.0128 47.7633 72.013 48.0422C72.0133 48.3231 71.983 48.4554 71.9987 48.3787C72.0091 48.3281 72.0492 48.144 72.1525 47.8497C72.252 47.5662 72.4544 47.0538 72.8304 46.4049L87.2511 54.7609L101.672 63.1168C104.715 57.8652 105.35 51.9714 105.346 48.0122C105.343 44.0072 104.681 38.2377 101.783 33.0782L87.2511 41.2392ZM44.7234 79.1871L34.7127 65.8617C34.5838 65.9586 34.4919 66.0248 34.3616 66.1167C34.2782 66.1755 34.1957 66.2331 34.0547 66.3317C33.9234 66.4235 33.7602 66.5377 33.5732 66.67L43.1967 80.2775L52.8203 93.8851C53.1017 93.686 53.8943 93.1433 54.734 92.5124L44.7234 79.1871ZM43.1967 80.2775L33.5732 66.67C33.0251 67.0576 32.6088 67.4011 32.4017 67.5753C32.1653 67.7742 31.9711 67.9477 31.8431 68.0638C31.5951 68.2887 31.3768 68.4977 31.2569 68.6129C31.1277 68.737 30.9827 68.878 30.8863 68.9716C30.7749 69.0796 30.6752 69.1761 30.5728 69.2744C30.1612 69.669 29.7868 70.0114 29.4268 70.3058C29.042 70.6207 28.8721 70.7161 28.9276 70.6845C28.9718 70.6593 29.1583 70.5556 29.481 70.4277C29.8003 70.3012 30.3514 70.1118 31.1078 69.9768L34.0369 86.3841L36.9659 102.791C40.5051 102.16 43.3989 100.802 45.4113 99.6569C47.4876 98.4756 49.231 97.1709 50.5323 96.1064C51.8585 95.0215 52.9431 94.0053 53.6438 93.3334C53.8194 93.165 53.9762 93.0131 54.0976 92.8953C54.2341 92.7629 54.2983 92.7005 54.353 92.6479C54.4171 92.5864 54.3572 92.6453 54.2405 92.7512C54.1781 92.8078 54.0426 92.9296 53.8579 93.085C53.7026 93.2156 53.331 93.5239 52.8203 93.8851L43.1967 80.2775ZM34.0369 86.3841L31.1078 69.9768C32.0553 69.8077 32.7414 69.815 33.0603 69.8297C33.4015 69.8456 33.5786 69.8824 33.5802 69.8828C33.5914 69.885 33.5191 69.8705 33.3775 69.8239C33.2388 69.7784 33.0787 69.7168 32.9146 69.6425C32.5331 69.4696 32.4074 69.3554 32.5293 69.452C32.6046 69.5117 32.8412 69.7062 33.1627 70.0691C33.4763 70.4231 33.9921 71.0742 34.4913 72.0535L19.6429 79.6233L4.79441 87.193C8.41108 94.2873 15.143 98.1856 19.1576 100.005C23.2831 101.874 30.0408 104.028 36.9659 102.791L34.0369 86.3841ZM19.6429 79.6233L34.4913 72.0535C35.3264 73.6915 35.5065 75.1405 35.5316 75.902C35.5524 76.5328 35.4646 76.774 35.5803 76.1076C35.6421 75.7515 35.6962 75.483 35.8199 74.8287C35.9204 74.2968 36.0745 73.4687 36.1983 72.5666C36.322 71.6647 36.4589 70.3933 36.4532 68.9297C36.4475 67.4637 36.3 65.498 35.6788 63.3047L19.6429 67.8463L3.60694 72.388C3.18558 70.9002 3.12265 69.7036 3.12014 69.0595C3.11882 68.7199 3.13438 68.4597 3.14706 68.3012C3.15979 68.1421 3.17279 68.0467 3.17438 68.0351C3.17599 68.0234 3.17104 68.0607 3.15227 68.1696C3.13318 68.2802 3.10698 68.4237 3.06681 68.6362C3.00355 68.9707 2.85695 69.722 2.73828 70.4054C2.30942 72.8755 1.09014 79.9268 4.79441 87.193L19.6429 79.6233ZM19.6429 67.8463L35.6788 63.3047C34.3832 58.73 32.8168 55.3098 29.7914 51.2019L16.3715 61.0855L2.95165 70.9691C3.41794 71.6022 3.4183 71.6803 3.33571 71.5083C3.26748 71.3662 3.34671 71.4691 3.60694 72.388L19.6429 67.8463ZM16.3715 61.0855L29.7914 51.2019C27.7734 48.462 25.477 46.738 24.0628 45.7795C23.3303 45.283 22.6567 44.876 22.1937 44.6014C21.9596 44.4625 21.7291 44.3281 21.5617 44.2303C21.3767 44.1223 21.2474 44.0466 21.128 43.9757C19.9878 43.2981 21.9117 44.1809 23.2702 46.5998L8.73832 54.7609L-5.79356 62.9219C-2.5395 68.7162 2.33138 71.5805 4.09902 72.631C4.34306 72.776 4.57669 72.9124 4.75182 73.0147C4.94446 73.1272 5.07142 73.2013 5.18978 73.2715C5.43191 73.4151 5.44381 73.4283 5.36036 73.3717C5.24433 73.293 4.09988 72.5281 2.95165 70.9691L16.3715 61.0855ZM8.73832 54.7609L23.2702 46.5998C23.6066 47.1989 23.7857 47.6634 23.8714 47.912C23.9607 48.1709 23.9933 48.3252 23.9994 48.3553C24.0068 48.3917 23.9767 48.2368 23.9764 47.9579C23.9762 47.677 24.0065 47.5447 23.9907 47.6213C23.9803 47.6719 23.9403 47.8561 23.837 48.1504C23.7375 48.4338 23.535 48.9462 23.159 49.5951L8.73832 41.2392L-5.68237 32.8833C-8.72534 38.1349 -9.36047 44.0287 -9.35691 47.9879C-9.35331 51.9928 -8.69111 57.7624 -5.79356 62.9219L8.73832 54.7609ZM8.73832 41.2392L23.159 49.5951C21.713 52.0907 19.6725 52.9825 20.8247 52.3301C20.946 52.2615 21.0746 52.1897 21.2642 52.0841C21.4357 51.9886 21.6695 51.8585 21.9104 51.7218C22.3854 51.4523 23.0766 51.0521 23.8311 50.5584C25.2981 49.5984 27.6386 47.8865 29.7028 45.1353L16.3715 35.1327L3.04017 25.13C4.22423 23.5519 5.40978 22.7769 5.57957 22.6658C5.68545 22.5965 5.69245 22.5986 5.46436 22.728C5.35371 22.7908 5.23113 22.8592 5.04367 22.9636C4.8743 23.058 4.6413 23.1876 4.40032 23.3241C2.65445 24.3127 -2.32244 27.0847 -5.68237 32.8833L8.73832 41.2392ZM16.3715 35.1327L29.7028 45.1353C32.9001 40.8741 34.4128 37.35 35.6697 32.9454L19.6429 28.3718L3.61601 23.7983C3.33026 24.7996 3.24814 24.9109 3.31707 24.7661C3.35237 24.692 3.37965 24.6485 3.36872 24.666C3.34873 24.6981 3.25956 24.8376 3.04017 25.13L16.3715 35.1327ZM19.6429 28.3718L35.6697 32.9454C36.3087 30.7062 36.451 28.7037 36.4524 27.2335C36.4538 25.7622 36.3118 24.484 36.1859 23.5839C36.0598 22.6823 35.9035 21.8501 35.8019 21.3166C35.6779 20.6658 35.6204 20.3792 35.5585 20.0232C35.4404 19.3435 35.5266 19.5675 35.5053 20.185C35.4795 20.9312 35.2991 22.3846 34.4483 24.0304L19.6429 16.3768L4.83747 8.72322C1.0459 16.0578 2.28061 23.2171 2.71752 25.731C2.8404 26.438 2.98867 27.1935 3.05692 27.5519C3.09908 27.7733 3.12705 27.9249 3.14785 28.044C3.16832 28.1613 3.1746 28.2063 3.17399 28.2019C3.17341 28.1977 3.16078 28.1081 3.14795 27.9537C3.1352 27.8001 3.11875 27.5415 3.11908 27.2011C3.1197 26.5612 3.17824 25.3324 3.61601 23.7983L19.6429 28.3718ZM19.6429 16.3768L34.4483 24.0304C33.9696 24.9564 33.4794 25.5756 33.1756 25.9183C32.8652 26.2683 32.6363 26.4571 32.5604 26.5174C32.4372 26.6151 32.5535 26.5073 32.918 26.3427C33.0744 26.2721 33.2269 26.2138 33.3583 26.171C33.4925 26.1272 33.5588 26.1144 33.5434 26.1175C33.537 26.1187 33.3597 26.1547 33.0219 26.1696C32.7054 26.1834 32.0339 26.1886 31.1078 26.0233L34.0369 9.616L36.9659 -6.79126C30.0862 -8.01944 23.3683 -5.91907 19.2009 -4.03745C15.1123 -2.19137 8.4701 1.69613 4.83747 8.72322L19.6429 16.3768ZM34.0369 9.616L31.1078 26.0233C30.3514 25.8882 29.8003 25.6989 29.481 25.5724C29.1583 25.4445 28.9718 25.3407 28.9276 25.3156C28.8721 25.284 29.042 25.3794 29.4268 25.6942C29.7868 25.9887 30.1612 26.331 30.5727 26.7257C30.6752 26.824 30.7749 26.9205 30.8863 27.0285C30.9827 27.122 31.1277 27.263 31.2569 27.3872C31.3768 27.5024 31.5951 27.7113 31.8431 27.9363C31.9711 28.0524 32.1653 28.2259 32.4017 28.4248C32.6088 28.599 33.0251 28.9425 33.5732 29.3301L43.1967 15.7226L52.8202 2.11499C53.331 2.4762 53.7026 2.78447 53.8579 2.91511C54.0426 3.07049 54.178 3.19224 54.2405 3.24886C54.3572 3.35476 54.4171 3.41372 54.353 3.35217C54.2983 3.29963 54.2341 3.2372 54.0976 3.10481C53.9762 2.98695 53.8194 2.83504 53.6438 2.66668C52.9431 1.99475 51.8585 0.97855 50.5323 -0.106311C49.2311 -1.17079 47.4876 -2.47548 45.4113 -3.65678C43.3989 -4.80174 40.5051 -6.15945 36.9659 -6.79126L34.0369 9.616ZM43.1967 15.7226L33.5732 29.3301C33.7603 29.4624 33.9234 29.5766 34.0547 29.6684C34.1958 29.767 34.2782 29.8246 34.3617 29.8834C34.492 29.9753 34.5838 30.0415 34.7127 30.1384L44.7234 16.813L54.734 3.48766C53.8942 2.8568 53.1016 2.31397 52.8202 2.11499L43.1967 15.7226ZM44.7234 16.813L34.7127 30.1384C30.9021 27.2757 29.5067 23.6158 29.348 23.2341C28.8887 22.1297 28.6553 21.2233 28.5617 20.8407C28.3589 20.0124 28.2748 19.3734 28.2548 19.2227C28.2003 18.8117 28.1886 18.5714 28.1975 18.7034C28.2091 18.876 28.2316 19.3223 28.2573 20.1319C28.3071 21.6935 28.3513 24.006 28.3875 26.8919C28.4595 32.6312 28.496 40.2978 28.496 48C28.496 55.7022 28.4595 63.3688 28.3875 69.1082C28.3513 71.9941 28.3071 74.3066 28.2573 75.8681C28.2316 76.6778 28.2091 77.1241 28.1975 77.2967C28.1886 77.4286 28.2003 77.1883 28.2548 76.7773C28.2748 76.6267 28.3589 75.9876 28.5617 75.1593C28.6553 74.7768 28.8887 73.8704 29.348 72.7659C29.5067 72.3843 30.9021 68.7244 34.7127 65.8617L44.7234 79.1871L54.734 92.5124C58.5537 89.6428 59.9583 85.9686 60.126 85.5653C60.5943 84.4392 60.8366 83.5038 60.9391 83.085C61.1596 82.1843 61.2611 81.4439 61.2983 81.164C61.3871 80.4944 61.432 79.8838 61.4552 79.5411C61.5076 78.7643 61.5446 77.8439 61.5738 76.9291C61.6339 75.0418 61.6812 72.4744 61.7182 69.5265C61.7926 63.5982 61.8293 55.7813 61.8293 48C61.8293 40.2187 61.7926 32.4018 61.7182 26.4735C61.6812 23.5257 61.6339 20.9583 61.5738 19.0709C61.5446 18.1561 61.5076 17.2357 61.4552 16.4589C61.432 16.1163 61.3871 15.5056 61.2983 14.8361C61.2611 14.5561 61.1596 13.8158 60.9391 12.915C60.8366 12.4963 60.5943 11.5609 60.126 10.4347C59.9583 10.0314 58.5537 6.35722 54.734 3.48766L44.7234 16.813Z" fill="#543310" mask="url(#path-1-inside-1_41_32)"/>
</svg>
